<svg xmlns="http://www.w3.org/2000/svg" viewBox="0 0 1600 900" width="1600" height="900" role="img">
<defs>
  <linearGradient id="bg" x1="0" y1="0" x2="1" y2="1">
    <stop offset="0%" stop-color="#141d2b"/><stop offset="100%" stop-color="#080b12"/>
  </linearGradient>
  <radialGradient id="glow" cx="50%" cy="42%" r="62%">
    <stop offset="0%" stop-color="#5b9dff" stop-opacity=".20"/>
    <stop offset="100%" stop-color="#5b9dff" stop-opacity="0"/>
  </radialGradient>
  <pattern id="grid" width="50" height="50" patternUnits="userSpaceOnUse">
    <path d="M50 0H0v50" fill="none" stroke="#25334a" stroke-width="1" opacity=".55"/>
  </pattern>
</defs>
<rect width="1600" height="900" fill="url(#bg)"/>
<rect width="1600" height="900" fill="url(#grid)"/>
<rect width="1600" height="900" fill="url(#glow)"/>
<rect x="300" y="300" width="180" height="300" rx="26" fill="none" stroke="#5b9dff" stroke-width="4" opacity=".85"/><rect x="322" y="490" width="136" height="110" rx="12" fill="#5b9dff" opacity=".18"/><rect x="366" y="276" width="48" height="26" rx="8" fill="#5b9dff" opacity=".7"/><text x="390" y="660" fill="#5a6a80" font-family="monospace" font-size="26" text-anchor="middle">CELL 1</text><rect x="560" y="300" width="180" height="300" rx="26" fill="none" stroke="#5b9dff" stroke-width="4" opacity=".85"/><rect x="582" y="438" width="136" height="162" rx="12" fill="#5b9dff" opacity=".18"/><rect x="626" y="276" width="48" height="26" rx="8" fill="#5b9dff" opacity=".7"/><text x="650" y="660" fill="#5a6a80" font-family="monospace" font-size="26" text-anchor="middle">CELL 2</text><rect x="820" y="300" width="180" height="300" rx="26" fill="none" stroke="#5b9dff" stroke-width="4" opacity=".85"/><rect x="842" y="386" width="136" height="214" rx="12" fill="#5b9dff" opacity=".18"/><rect x="886" y="276" width="48" height="26" rx="8" fill="#5b9dff" opacity=".7"/><text x="910" y="660" fill="#5a6a80" font-family="monospace" font-size="26" text-anchor="middle">CELL 3</text><rect x="1080" y="300" width="180" height="300" rx="26" fill="none" stroke="#5b9dff" stroke-width="4" opacity=".85"/><rect x="1102" y="490" width="136" height="110" rx="12" fill="#5b9dff" opacity=".18"/><rect x="1146" y="276" width="48" height="26" rx="8" fill="#5b9dff" opacity=".7"/><text x="1170" y="660" fill="#5a6a80" font-family="monospace" font-size="26" text-anchor="middle">CELL 4</text><path d="M300 250 H1220" stroke="#ff7a70" stroke-width="3" opacity=".5" stroke-dasharray="10 8"/><circle cx="390" cy="250" r="8" fill="#ff7a70" opacity=".8"/><circle cx="650" cy="250" r="8" fill="#ff7a70" opacity=".8"/><circle cx="910" cy="250" r="8" fill="#ff7a70" opacity=".8"/><circle cx="1170" cy="250" r="8" fill="#ff7a70" opacity=".8"/><text x="300" y="200" fill="#5b9dff" font-family="monospace" font-size="30" letter-spacing="4">bq76930 · AFE-BMS</text>
</svg>
